# xmcd
#
# Track frame offsets: 
#        150
#        17662
#        31255
#        43935
#        59335
#        71676
#        87082
#        103081
#        116091
#        129630
#        149188
#        161860
#        175365
#        187053
#        199609
#        211817
#        223117
#        242003
#        257636
#        277196
#
# Disc length: 3897 seconds
#
# Revision: 3
# Processed by: cddbd v1.5.2PL0 Copyright (c) Steve Scherf et al.
# Submitted via: ExactAudioCopyFreeDBPlugin 1.0
#
DISCID=3f0f3714
DTITLE=Various Artist - Internationaler ADAC Truck Grand-Prix 2007 (C
DTITLE=D 1)
DYEAR=2007
DGENRE=Country
TTITLE0=Tom Astor and Joe Sun - Young Eagle (Junger Adler)
TTITLE1=Texas Lightning - No No Never
TTITLE2=The BossHoss - Rodeo Radio (Album Version)
TTITLE3=Truck Stop - Einfache Cowboys
TTITLE4=Gudrun Lange and Kactus - Ich hab es gern (Top of the world)
TTITLE5=Larry Schuba and Western Union - Auf der Autobahn
TTITLE6=Dagmar Lay D. - Ich geh' meinen Weg
TTITLE7=Helt Oncale - Cajun Nights
TTITLE8=Mark Bender - Der Regenmann
TTITLE9=Jill Morris - Mississippi
TTITLE10=Nashville Music Company - Wir steh'n im Stau
TTITLE11=Martin Jones - Adler
TTITLE12=Dave Dudley - Six Days On The Road
TTITLE13=Jonny Hill - Fünfhundert Meilen von zu Haus
TTITLE14=Frank Baum and Country Green - Oh Lonesome Me
TTITLE15=David Price - The Lonesome Truck Driver's Waltz
TTITLE16=Dirk Maverick - Opas Haus
TTITLE17=Michael Heck - Rocky Mountain Lady
TTITLE18=Boppin B. - If You Believe
TTITLE19=Hermes House Band - Country Roads
EXTD=YEAR: 2007
EXTT0=
EXTT1=
EXTT2=
EXTT3=
EXTT4=
EXTT5=
EXTT6=
EXTT7=
EXTT8=
EXTT9=
EXTT10=
EXTT11=
EXTT12=
EXTT13=
EXTT14=
EXTT15=
EXTT16=
EXTT17=
EXTT18=
EXTT19=
PLAYORDER=
